<?xml version="1.0" encoding="utf-8"?>
<!-- Generator: Adobe Illustrator 28.1.0, SVG Export Plug-In . SVG Version: 6.00 Build 0)  -->
<svg version="1.1" xmlns="http://www.w3.org/2000/svg" xmlns:xlink="http://www.w3.org/1999/xlink" x="0px" y="0px"
	 viewBox="0 0 1080 1080" style="enable-background:new 0 0 1080 1080;" xml:space="preserve">
<style type="text/css">
	.st0{fill:#00CFF2;}
</style>
<g id="Layer_1">
	<path class="st0" d="M955.04,238.32c-31.4-76.47-97.73-117.49-185.34-117.49H361.04c-87.61,0-153.94,41.02-185.34,117.49
		L54.58,582.43c37.98-19.24,81.11-81.79,128.72-81.79c191.04,0,573.11,0,764.14,0c47.6,0,91.57,62.55,129.04,81.79L955.04,238.32z
		 M549.97,199.49H424.69l-19.69,108.84h-61.98l27.62-108.84l9.85-38.8h51.22h118.72L549.97,199.49z M735.82,436.71H570.47
		l-0.79-66.49h154.12l-22.45-124.1h57.44l31.49,124.1l16.87,66.49H735.82z"/>
</g>
<g id="Layer_2">
	<path class="st0" d="M1051.2,649.65c-14.82-26.49-35.61-47.09-62.37-61.78c-26.76-14.69-57.85-22.04-93.26-22.04H381.63
		c28.07,24.4,50.43,53.78,67.1,88.15c16.66,34.37,24.99,71.23,24.99,110.58c0,28.6-4.52,56.01-13.58,82.24
		c-9.05,26.23-21.45,50.24-37.19,72.01h472.61c35.42,0,66.5-7.35,93.26-22.04c26.76-14.7,47.55-35.29,62.37-61.78
		c14.82-26.49,22.23-57.45,22.23-92.87C1073.43,706.97,1066.02,676.15,1051.2,649.65z M945.93,782.06
		c-11.02,10.89-24.27,16.33-39.75,16.33c-15.74,0.26-29.12-5.12-40.14-16.14c-11.02-11.02-16.53-24.4-16.53-40.14
		c0-15.21,5.57-28.39,16.72-39.55c11.15-11.15,24.46-16.72,39.94-16.72c15.21,0,28.4,5.58,39.55,16.72
		c11.15,11.15,16.73,24.34,16.73,39.55C962.46,757.86,956.95,771.18,945.93,782.06z"/>
	<path class="st0" d="M385.17,663.42c-18.37-30.69-42.89-55.22-73.59-73.59c-30.69-18.36-64.54-27.55-101.53-27.55
		c-37.25,0-71.23,9.19-101.92,27.55c-30.69,18.37-55.23,42.89-73.59,73.59C16.19,694.11,7,727.95,7,764.95
		c0,27.55,5.31,53.59,15.94,78.11c10.62,24.53,25.25,46.17,43.88,64.93c18.62,18.75,40.2,33.45,64.73,44.07
		c24.53,10.62,50.7,15.94,78.51,15.94c27.55,0,53.58-5.31,78.11-15.94c24.53-10.62,46.1-25.32,64.73-44.07
		c18.62-18.76,33.25-40.4,43.88-64.93c10.62-24.53,15.94-50.57,15.94-78.11C412.72,727.95,403.53,694.11,385.17,663.42z
		 M141.72,877.35c-5.52,6.69-11.71,10.16-18.57,10.42c-6.86,0.25-13.05-2.38-18.57-7.91L86,861.28c-5.69-5.52-8.37-11.71-8.03-18.57
		c0.33-6.86,3.68-13.13,10.04-18.82l107.92-91.35l37.14,37.39L141.72,877.35z M335.97,760.14l-27.1,27.1
		c-3.35,3.51-7.24,5.19-11.67,5.02c-4.44-0.16-8.49-2.09-12.17-5.77l-6.02-5.77c-2.85-2.67-4.69-5.18-5.52-7.53
		c-0.84-2.34-0.92-4.93-0.25-7.78l0.75-7.28l-5.52-5.27l-9.03,1.76c-9.03,2.01-17.65-1.09-25.85-9.29l-17.32-17.32
		c-7.2-7.19-8.7-15.98-4.52-26.35l3.76-10.54c-5.02-2.67-11-3.85-17.94-3.51c-6.94,0.34-14.1,1.51-21.46,3.51
		c-4.69,1.17-8.7,1.09-12.05-0.25c-3.35-1.34-5.86-3.34-7.53-6.02c-1.84-2.84-2.6-6.19-2.26-10.04c0.33-3.85,2.09-7.36,5.27-10.54
		c9.87-9.87,22-16.27,36.39-19.2c14.39-2.93,28.82-2.55,43.29,1.13c14.47,3.68,26.56,10.46,36.26,20.33l18.32,18.07
		c8.36,8.03,11.63,16.73,9.79,26.1l-2.01,9.03l5.27,5.27l7.03-0.75c3.01-0.16,5.69,0.04,8.03,0.63c2.34,0.59,4.85,2.38,7.53,5.4
		l6.27,5.77c3.51,3.68,5.31,7.74,5.4,12.17C341.19,752.66,339.48,756.63,335.97,760.14z"/>
</g>
</svg>
