<?xml version="1.0" encoding="utf-8"?>
<svg version="1.1" xmlns="http://www.w3.org/2000/svg" xmlns:xlink="http://www.w3.org/1999/xlink" x="0px" y="0px"
	 viewBox="0 0 24 24" style="enable-background:new 0 0 24 24;" xml:space="preserve">
<style type="text/css">
	.st0{fill:#FFFFFF;}
	.st1{fill:#00CFF2;}
</style>
<g id="Layer_2">
	<rect x="6.3" y="3.4" class="st0" width="12.3" height="7.9"/>
	<rect x="10.6" y="14" class="st0" width="10.8" height="6.1"/>
</g>
<g id="Layer_1">
	<path class="st1" d="M19.8,13.2H4.2c-2.4,0-4.1,1.7-4.1,4.1c0,2.4,1.7,4.1,4.1,4.1h15.6c2.4,0,4.1-1.7,4.1-4.1
		C23.9,14.8,22.2,13.2,19.8,13.2z M19.7,18.6c-0.7,0-1.3-0.6-1.3-1.3c0-0.7,0.6-1.3,1.3-1.3c0.7,0,1.3,0.6,1.3,1.3
		C21,18,20.4,18.6,19.7,18.6z"/>
	<path class="st1" d="M21.1,5.5c-0.7-1.8-2.3-2.7-4.3-2.7H7.3c-2,0-3.6,1-4.3,2.7l-2.8,8C1,13,2,11.6,3.1,11.6c4.4,0,13.3,0,17.8,0
		c1.1,0,2.1,1.5,3,1.9L21.1,5.5z M11.6,4.6H8.7L8.3,7.1H6.8l0.6-2.5l0.2-0.9h1.2h2.8L11.6,4.6z M16,10.1h-3.8l0-1.5h3.6l-0.5-2.9
		h1.3l0.7,2.9l0.4,1.5H16z"/>
</g>
</svg>
